<svg xmlns="http://www.w3.org/2000/svg" width="512" height="512" viewBox="0 0 512 512" role="img" aria-label="LeetCode to GitHub">
  <defs>
    <linearGradient id="bg" x1="0" y1="0" x2="1" y2="1">
      <stop offset="0%" stop-color="#0f7b53"/>
      <stop offset="100%" stop-color="#1d4f8f"/>
    </linearGradient>
  </defs>
  <rect x="24" y="24" width="464" height="464" rx="96" fill="url(#bg)"/>
  <path d="M168 278l56 56 120-120" fill="none" stroke="#fff" stroke-width="42" stroke-linecap="round" stroke-linejoin="round"/>
  <circle cx="406" cy="406" r="44" fill="#fff"/>
  <path d="M406 374c-18 0-32 14-32 32s14 32 32 32 32-14 32-32-14-32-32-32zm0 10c12 0 22 10 22 22 0 8-4 15-11 19v-12h-22v12c-7-4-11-11-11-19 0-12 10-22 22-22z" fill="#1d2433"/>
</svg>
